<svg xmlns="http://www.w3.org/2000/svg" xmlns:xlink="http://www.w3.org/1999/xlink" width="500" zoomAndPan="magnify" viewBox="0 0 375 374.999991" height="500" preserveAspectRatio="xMidYMid meet" version="1.0"><defs><g/><clipPath id="0cbf3bef12"><path d="M 76 135.035156 L 90 135.035156 L 90 203 L 76 203 Z M 76 135.035156 " clip-rule="nonzero"/></clipPath><clipPath id="83c88a06c6"><path d="M 107 135.035156 L 121 135.035156 L 121 203 L 107 203 Z M 107 135.035156 " clip-rule="nonzero"/></clipPath></defs><rect x="-37.5" width="450" fill="#ffffff" y="-37.499999" height="449.999989" fill-opacity="1"/><rect x="-37.5" width="450" fill="#120200" y="-37.499999" height="449.999989" fill-opacity="1"/><path fill="#ed5b2d" d="M 150.953125 174.589844 L 150.953125 166.273438 C 148.851562 166.191406 147.257812 165.769531 146.164062 164.929688 C 145.074219 164.089844 144.402344 162.914062 143.980469 161.320312 C 143.5625 159.726562 143.394531 157.039062 143.394531 153.34375 C 143.394531 149.394531 143.226562 146.539062 142.804688 144.777344 C 142.386719 143.011719 141.714844 141.585938 140.621094 140.410156 C 139.53125 139.320312 138.105469 138.480469 136.339844 137.890625 C 134.578125 137.386719 132.140625 137.050781 129.035156 137.050781 L 127.1875 137.050781 L 127.1875 145.363281 C 130.292969 145.363281 132.226562 145.699219 133.066406 146.289062 C 133.90625 146.875 134.242188 148.304688 134.242188 150.402344 C 134.242188 156.871094 134.660156 161.40625 135.417969 164.007812 C 136.171875 166.609375 138.019531 168.710938 140.789062 170.390625 C 138.691406 171.566406 137.011719 173.246094 135.921875 175.597656 C 134.828125 177.863281 134.242188 182.820312 134.242188 190.460938 C 134.242188 192.308594 133.988281 193.398438 133.484375 193.988281 C 132.980469 194.492188 132.394531 194.910156 131.804688 195.164062 C 131.21875 195.414062 129.707031 195.5 127.1875 195.5 L 127.1875 203.8125 L 129.035156 203.8125 C 133.738281 203.8125 136.84375 203.226562 138.523438 202.132812 C 140.203125 200.957031 141.378906 199.699219 142.132812 198.1875 C 142.890625 196.675781 143.308594 193.230469 143.308594 187.6875 C 143.308594 183.996094 143.476562 181.308594 143.898438 179.710938 C 144.316406 178.117188 144.988281 176.855469 146.082031 176.015625 C 147.171875 175.175781 148.769531 174.671875 150.867188 174.589844 Z M 45.980469 174.589844 C 48.078125 174.671875 49.675781 175.175781 50.765625 176.015625 C 51.859375 176.855469 52.53125 178.03125 52.949219 179.628906 C 53.371094 181.222656 53.539062 183.910156 53.539062 187.6875 C 53.539062 193.0625 53.957031 196.589844 54.714844 198.1875 C 55.46875 199.78125 56.8125 201.125 58.578125 202.21875 C 60.339844 203.308594 63.449219 203.8125 67.898438 203.8125 L 69.746094 203.8125 L 69.746094 195.5 C 66.808594 195.5 64.960938 195.164062 64.035156 194.492188 C 63.113281 193.820312 62.691406 192.476562 62.691406 190.460938 C 62.691406 183.828125 62.273438 179.207031 61.433594 176.605469 C 60.59375 174 58.828125 171.984375 56.226562 170.472656 C 59.082031 168.792969 60.84375 166.609375 61.601562 163.921875 C 62.355469 161.238281 62.691406 156.785156 62.691406 150.488281 C 62.691406 148.304688 63.113281 146.960938 63.953125 146.371094 C 64.792969 145.785156 66.722656 145.449219 69.746094 145.449219 L 69.746094 137.136719 L 67.898438 137.136719 C 63.867188 137.136719 60.84375 137.640625 58.828125 138.648438 C 56.8125 139.652344 55.386719 141.164062 54.714844 143.179688 C 53.957031 145.195312 53.621094 148.554688 53.621094 153.34375 C 53.621094 157.039062 53.453125 159.640625 53.035156 161.238281 C 52.613281 162.832031 51.941406 164.089844 50.851562 164.929688 C 49.757812 165.769531 48.164062 166.273438 46.066406 166.359375 L 46.066406 174.671875 Z M 45.980469 174.589844 " fill-opacity="1" fill-rule="nonzero"/><g clip-path="url(#0cbf3bef12)"><path fill="#ffce6d" d="M 80.074219 199.699219 L 86.625 199.699219 C 88.390625 199.699219 89.902344 201.125 89.902344 202.972656 L 89.902344 138.3125 C 89.902344 136.546875 88.472656 135.035156 86.625 135.035156 L 80.074219 135.035156 C 78.3125 135.035156 76.800781 136.464844 76.800781 138.3125 L 76.800781 202.972656 C 76.800781 201.210938 78.226562 199.699219 80.074219 199.699219 Z M 80.074219 199.699219 " fill-opacity="1" fill-rule="evenodd"/></g><path fill="#f6f6e9" d="M 95.527344 198.859375 L 102.078125 198.859375 C 103.839844 198.859375 105.351562 200.285156 105.351562 202.132812 L 105.351562 153.257812 C 105.351562 151.496094 103.925781 149.984375 102.078125 149.984375 L 95.527344 149.984375 C 93.761719 149.984375 92.253906 151.410156 92.253906 153.257812 L 92.253906 202.132812 C 92.253906 203.898438 93.679688 198.859375 95.527344 198.859375 Z M 95.527344 198.859375 " fill-opacity="1" fill-rule="evenodd"/><g clip-path="url(#83c88a06c6)"><path fill="#ffce6d" d="M 110.390625 199.699219 L 116.941406 199.699219 C 118.703125 199.699219 120.214844 201.125 120.214844 202.972656 L 120.214844 138.3125 C 120.214844 136.546875 118.789062 135.035156 116.941406 135.035156 L 110.390625 135.035156 C 108.628906 135.035156 107.117188 136.464844 107.117188 138.3125 L 107.117188 202.972656 C 107.117188 201.210938 108.542969 199.699219 110.390625 199.699219 Z M 110.390625 199.699219 " fill-opacity="1" fill-rule="evenodd"/></g><g fill="#f6f6e9" fill-opacity="1"><g transform="translate(181.578201, 168.227202)"><g><path d="M 1.171875 -12.53125 C 1.171875 -14.988281 1.703125 -17.179688 2.765625 -19.109375 C 3.835938 -21.046875 5.328125 -22.554688 7.234375 -23.640625 C 9.148438 -24.722656 11.316406 -25.265625 13.734375 -25.265625 C 16.703125 -25.265625 19.238281 -24.476562 21.34375 -22.90625 C 23.457031 -21.34375 24.867188 -19.210938 25.578125 -16.515625 L 18.890625 -16.515625 C 18.390625 -17.554688 17.679688 -18.347656 16.765625 -18.890625 C 15.859375 -19.429688 14.820312 -19.703125 13.65625 -19.703125 C 11.78125 -19.703125 10.257812 -19.050781 9.09375 -17.75 C 7.9375 -16.445312 7.359375 -14.707031 7.359375 -12.53125 C 7.359375 -10.34375 7.9375 -8.597656 9.09375 -7.296875 C 10.257812 -5.992188 11.78125 -5.34375 13.65625 -5.34375 C 14.820312 -5.34375 15.859375 -5.613281 16.765625 -6.15625 C 17.679688 -6.695312 18.390625 -7.488281 18.890625 -8.53125 L 25.578125 -8.53125 C 24.867188 -5.832031 23.457031 -3.707031 21.34375 -2.15625 C 19.238281 -0.601562 16.703125 0.171875 13.734375 0.171875 C 11.316406 0.171875 9.148438 -0.363281 7.234375 -1.4375 C 5.328125 -2.519531 3.835938 -4.019531 2.765625 -5.9375 C 1.703125 -7.863281 1.171875 -10.0625 1.171875 -12.53125 Z M 1.171875 -12.53125 "/></g></g></g><g fill="#f6f6e9" fill-opacity="1"><g transform="translate(207.79912, 168.227202)"><g><path d="M 11.25 0.28125 C 9.300781 0.28125 7.550781 -0.128906 6 -0.953125 C 4.445312 -1.785156 3.222656 -2.972656 2.328125 -4.515625 C 1.441406 -6.054688 1 -7.859375 1 -9.921875 C 1 -11.960938 1.445312 -13.757812 2.34375 -15.3125 C 3.25 -16.863281 4.484375 -18.054688 6.046875 -18.890625 C 7.609375 -19.722656 9.363281 -20.140625 11.3125 -20.140625 C 13.257812 -20.140625 15.015625 -19.722656 16.578125 -18.890625 C 18.140625 -18.054688 19.367188 -16.863281 20.265625 -15.3125 C 21.171875 -13.757812 21.625 -11.960938 21.625 -9.921875 C 21.625 -7.878906 21.164062 -6.082031 20.25 -4.53125 C 19.34375 -2.976562 18.097656 -1.785156 16.515625 -0.953125 C 14.941406 -0.128906 13.1875 0.28125 11.25 0.28125 Z M 11.25 -4.984375 C 12.40625 -4.984375 13.390625 -5.410156 14.203125 -6.265625 C 15.023438 -7.117188 15.4375 -8.335938 15.4375 -9.921875 C 15.4375 -11.515625 15.039062 -12.738281 14.25 -13.59375 C 13.457031 -14.445312 12.476562 -14.875 11.3125 -14.875 C 10.125 -14.875 9.140625 -14.453125 8.359375 -13.609375 C 7.578125 -12.765625 7.1875 -11.535156 7.1875 -9.921875 C 7.1875 -8.335938 7.570312 -7.117188 8.34375 -6.265625 C 9.113281 -5.410156 10.082031 -4.984375 11.25 -4.984375 Z M 11.25 -4.984375 "/></g></g></g><g fill="#f6f6e9" fill-opacity="1"><g transform="translate(229.572773, 168.227202)"><g><path d="M 1 -9.96875 C 1 -12 1.382812 -13.785156 2.15625 -15.328125 C 2.925781 -16.867188 3.972656 -18.054688 5.296875 -18.890625 C 6.628906 -19.722656 8.113281 -20.140625 9.75 -20.140625 C 11.050781 -20.140625 12.238281 -19.863281 13.3125 -19.3125 C 14.394531 -18.769531 15.25 -18.035156 15.875 -17.109375 L 15.875 -26.328125 L 21.953125 -26.328125 L 21.953125 0 L 15.875 0 L 15.875 -2.84375 C 15.300781 -1.894531 14.484375 -1.132812 13.421875 -0.5625 C 12.367188 0 11.144531 0.28125 9.75 0.28125 C 8.113281 0.28125 6.628906 -0.132812 5.296875 -0.96875 C 3.972656 -1.8125 2.925781 -3.007812 2.15625 -4.5625 C 1.382812 -6.125 1 -7.925781 1 -9.96875 Z M 15.875 -9.921875 C 15.875 -11.441406 15.453125 -12.640625 14.609375 -13.515625 C 13.765625 -14.398438 12.738281 -14.84375 11.53125 -14.84375 C 10.320312 -14.84375 9.296875 -14.40625 8.453125 -13.53125 C 7.609375 -12.664062 7.1875 -11.476562 7.1875 -9.96875 C 7.1875 -8.445312 7.609375 -7.238281 8.453125 -6.34375 C 9.296875 -5.457031 10.320312 -5.015625 11.53125 -5.015625 C 12.738281 -5.015625 13.765625 -5.453125 14.609375 -6.328125 C 15.453125 -7.210938 15.875 -8.410156 15.875 -9.921875 Z M 15.875 -9.921875 "/></g></g></g><g fill="#f6f6e9" fill-opacity="1"><g transform="translate(252.840716, 168.227202)"><g><path d="M 20.921875 -10.25 C 20.921875 -9.675781 20.882812 -9.082031 20.8125 -8.46875 L 7.046875 -8.46875 C 7.140625 -7.238281 7.535156 -6.296875 8.234375 -5.640625 C 8.929688 -4.984375 9.789062 -4.65625 10.8125 -4.65625 C 12.332031 -4.65625 13.390625 -5.296875 13.984375 -6.578125 L 20.453125 -6.578125 C 20.117188 -5.273438 19.519531 -4.101562 18.65625 -3.0625 C 17.789062 -2.019531 16.707031 -1.203125 15.40625 -0.609375 C 14.101562 -0.015625 12.644531 0.28125 11.03125 0.28125 C 9.082031 0.28125 7.347656 -0.128906 5.828125 -0.953125 C 4.316406 -1.785156 3.132812 -2.972656 2.28125 -4.515625 C 1.425781 -6.054688 1 -7.859375 1 -9.921875 C 1 -11.984375 1.414062 -13.785156 2.25 -15.328125 C 3.09375 -16.867188 4.273438 -18.054688 5.796875 -18.890625 C 7.316406 -19.722656 9.0625 -20.140625 11.03125 -20.140625 C 12.945312 -20.140625 14.648438 -19.734375 16.140625 -18.921875 C 17.640625 -18.117188 18.8125 -16.96875 19.65625 -15.46875 C 20.5 -13.976562 20.921875 -12.238281 20.921875 -10.25 Z M 14.6875 -11.84375 C 14.6875 -12.882812 14.332031 -13.710938 13.625 -14.328125 C 12.914062 -14.953125 12.023438 -15.265625 10.953125 -15.265625 C 9.929688 -15.265625 9.070312 -14.96875 8.375 -14.375 C 7.675781 -13.78125 7.242188 -12.9375 7.078125 -11.84375 Z M 14.6875 -11.84375 "/></g></g></g><g fill="#ed5b2d" fill-opacity="1"><g transform="translate(273.87507, 168.227202)"><g><path d="M 17.5 0 L 12.421875 -7.65625 L 7.9375 0 L 1.03125 0 L 9.03125 -12.703125 L 0.859375 -24.96875 L 7.9375 -24.96875 L 12.953125 -17.4375 L 17.359375 -24.96875 L 24.265625 -24.96875 L 16.328125 -12.375 L 24.578125 0 Z M 17.5 0 "/></g></g></g><g fill="#ffce6d" fill-opacity="1"><g transform="translate(155.714686, 182.249988)"><g><path d="M 7.40625 -10.015625 L 7.40625 -8.0625 L 3.328125 -8.0625 L 3.328125 -5.953125 L 6.375 -5.953125 L 6.375 -4.046875 L 3.328125 -4.046875 L 3.328125 0 L 0.890625 0 L 0.890625 -10.015625 Z M 7.40625 -10.015625 "/></g></g></g><g fill="#ffce6d" fill-opacity="1"><g transform="translate(166.93952, 182.249988)"><g><path d="M 3.328125 -6.640625 C 3.609375 -7.078125 3.960938 -7.421875 4.390625 -7.671875 C 4.816406 -7.921875 5.296875 -8.046875 5.828125 -8.046875 L 5.828125 -5.46875 L 5.15625 -5.46875 C 4.539062 -5.46875 4.082031 -5.332031 3.78125 -5.0625 C 3.476562 -4.800781 3.328125 -4.34375 3.328125 -3.6875 L 3.328125 0 L 0.890625 0 L 0.890625 -7.953125 L 3.328125 -7.953125 Z M 3.328125 -6.640625 "/></g></g></g><g fill="#ffce6d" fill-opacity="1"><g transform="translate(176.467218, 182.249988)"><g><path d="M 4.515625 0.109375 C 3.734375 0.109375 3.03125 -0.0546875 2.40625 -0.390625 C 1.78125 -0.722656 1.289062 -1.195312 0.9375 -1.8125 C 0.582031 -2.425781 0.40625 -3.148438 0.40625 -3.984375 C 0.40625 -4.796875 0.582031 -5.515625 0.9375 -6.140625 C 1.300781 -6.765625 1.796875 -7.242188 2.421875 -7.578125 C 3.046875 -7.910156 3.75 -8.078125 4.53125 -8.078125 C 5.3125 -8.078125 6.015625 -7.910156 6.640625 -7.578125 C 7.273438 -7.242188 7.769531 -6.765625 8.125 -6.140625 C 8.488281 -5.515625 8.671875 -4.796875 8.671875 -3.984375 C 8.671875 -3.160156 8.488281 -2.4375 8.125 -1.8125 C 7.757812 -1.195312 7.257812 -0.722656 6.625 -0.390625 C 5.988281 -0.0546875 5.285156 0.109375 4.515625 0.109375 Z M 4.515625 -2 C 4.972656 -2 5.363281 -2.171875 5.6875 -2.515625 C 6.019531 -2.859375 6.1875 -3.347656 6.1875 -3.984375 C 6.1875 -4.617188 6.023438 -5.109375 5.703125 -5.453125 C 5.390625 -5.796875 5 -5.96875 4.53125 -5.96875 C 4.0625 -5.96875 3.664062 -5.796875 3.34375 -5.453125 C 3.03125 -5.117188 2.875 -4.628906 2.875 -3.984375 C 2.875 -3.347656 3.03125 -2.859375 3.34375 -2.515625 C 3.65625 -2.171875 4.046875 -2 4.515625 -2 Z M 4.515625 -2 "/></g></g></g><g fill="#ffce6d" fill-opacity="1"><g transform="translate(188.975598, 182.249988)"><g><path d="M 11.046875 -8.046875 C 12.035156 -8.046875 12.820312 -7.742188 13.40625 -7.140625 C 13.988281 -6.546875 14.28125 -5.71875 14.28125 -4.65625 L 14.28125 0 L 11.859375 0 L 11.859375 -4.328125 C 11.859375 -4.835938 11.722656 -5.234375 11.453125 -5.515625 C 11.179688 -5.796875 10.804688 -5.9375 10.328125 -5.9375 C 9.847656 -5.9375 9.472656 -5.796875 9.203125 -5.515625 C 8.929688 -5.234375 8.796875 -4.835938 8.796875 -4.328125 L 8.796875 0 L 6.375 0 L 6.375 -4.328125 C 6.375 -4.835938 6.238281 -5.234375 5.96875 -5.515625 C 5.695312 -5.796875 5.320312 -5.9375 4.84375 -5.9375 C 4.375 -5.9375 4.003906 -5.796875 3.734375 -5.515625 C 3.460938 -5.234375 3.328125 -4.835938 3.328125 -4.328125 L 3.328125 0 L 0.890625 0 L 0.890625 -7.953125 L 3.328125 -7.953125 L 3.328125 -6.96875 C 3.566406 -7.289062 3.882812 -7.550781 4.28125 -7.75 C 4.6875 -7.945312 5.144531 -8.046875 5.65625 -8.046875 C 6.25 -8.046875 6.78125 -7.914062 7.25 -7.65625 C 7.71875 -7.40625 8.085938 -7.039062 8.359375 -6.5625 C 8.628906 -7 9.003906 -7.351562 9.484375 -7.625 C 9.960938 -7.90625 10.484375 -8.046875 11.046875 -8.046875 Z M 11.046875 -8.046875 "/></g></g></g><g fill="#ffce6d" fill-opacity="1"><g transform="translate(207.502403, 182.249988)"><g/></g></g><g fill="#ffce6d" fill-opacity="1"><g transform="translate(213.94958, 182.249988)"><g><path d="M 3.328125 -10.015625 L 3.328125 0 L 0.890625 0 L 0.890625 -10.015625 Z M 3.328125 -10.015625 "/></g></g></g><g fill="#ffce6d" fill-opacity="1"><g transform="translate(221.580477, 182.249988)"><g><path d="M 0.40625 -4 C 0.40625 -4.8125 0.554688 -5.523438 0.859375 -6.140625 C 1.171875 -6.765625 1.59375 -7.242188 2.125 -7.578125 C 2.65625 -7.910156 3.25 -8.078125 3.90625 -8.078125 C 4.425781 -8.078125 4.898438 -7.96875 5.328125 -7.75 C 5.765625 -7.53125 6.109375 -7.234375 6.359375 -6.859375 L 6.359375 -10.5625 L 8.796875 -10.5625 L 8.796875 0 L 6.359375 0 L 6.359375 -1.140625 C 6.128906 -0.765625 5.800781 -0.460938 5.375 -0.234375 C 4.957031 -0.00390625 4.46875 0.109375 3.90625 0.109375 C 3.25 0.109375 2.65625 -0.0546875 2.125 -0.390625 C 1.59375 -0.734375 1.171875 -1.210938 0.859375 -1.828125 C 0.554688 -2.453125 0.40625 -3.175781 0.40625 -4 Z M 6.359375 -3.984375 C 6.359375 -4.585938 6.1875 -5.066406 5.84375 -5.421875 C 5.507812 -5.773438 5.101562 -5.953125 4.625 -5.953125 C 4.132812 -5.953125 3.71875 -5.773438 3.375 -5.421875 C 3.039062 -5.078125 2.875 -4.601562 2.875 -4 C 2.875 -3.382812 3.039062 -2.898438 3.375 -2.546875 C 3.71875 -2.191406 4.132812 -2.015625 4.625 -2.015625 C 5.101562 -2.015625 5.507812 -2.1875 5.84375 -2.53125 C 6.1875 -2.882812 6.359375 -3.367188 6.359375 -3.984375 Z M 6.359375 -3.984375 "/></g></g></g><g fill="#ffce6d" fill-opacity="1"><g transform="translate(234.687852, 182.249988)"><g><path d="M 8.390625 -4.109375 C 8.390625 -3.878906 8.375 -3.640625 8.34375 -3.390625 L 2.828125 -3.390625 C 2.859375 -2.898438 3.015625 -2.523438 3.296875 -2.265625 C 3.578125 -2.003906 3.925781 -1.875 4.34375 -1.875 C 4.945312 -1.875 5.367188 -2.128906 5.609375 -2.640625 L 8.203125 -2.640625 C 8.066406 -2.117188 7.828125 -1.644531 7.484375 -1.21875 C 7.140625 -0.800781 6.703125 -0.472656 6.171875 -0.234375 C 5.648438 -0.00390625 5.066406 0.109375 4.421875 0.109375 C 3.640625 0.109375 2.941406 -0.0546875 2.328125 -0.390625 C 1.722656 -0.722656 1.25 -1.195312 0.90625 -1.8125 C 0.570312 -2.425781 0.40625 -3.148438 0.40625 -3.984375 C 0.40625 -4.804688 0.570312 -5.523438 0.90625 -6.140625 C 1.238281 -6.765625 1.707031 -7.242188 2.3125 -7.578125 C 2.925781 -7.910156 3.628906 -8.078125 4.421875 -8.078125 C 5.191406 -8.078125 5.875 -7.914062 6.46875 -7.59375 C 7.070312 -7.269531 7.539062 -6.804688 7.875 -6.203125 C 8.21875 -5.609375 8.390625 -4.910156 8.390625 -4.109375 Z M 5.890625 -4.75 C 5.890625 -5.164062 5.742188 -5.5 5.453125 -5.75 C 5.171875 -6 4.816406 -6.125 4.390625 -6.125 C 3.984375 -6.125 3.640625 -6.003906 3.359375 -5.765625 C 3.078125 -5.523438 2.90625 -5.1875 2.84375 -4.75 Z M 5.890625 -4.75 "/></g></g></g><g fill="#ffce6d" fill-opacity="1"><g transform="translate(246.89674, 182.249988)"><g><path d="M 0.40625 -4 C 0.40625 -4.8125 0.554688 -5.523438 0.859375 -6.140625 C 1.171875 -6.765625 1.59375 -7.242188 2.125 -7.578125 C 2.65625 -7.910156 3.25 -8.078125 3.90625 -8.078125 C 4.46875 -8.078125 4.957031 -7.960938 5.375 -7.734375 C 5.800781 -7.503906 6.128906 -7.203125 6.359375 -6.828125 L 6.359375 -7.953125 L 8.796875 -7.953125 L 8.796875 0 L 6.359375 0 L 6.359375 -1.125 C 6.117188 -0.757812 5.785156 -0.460938 5.359375 -0.234375 C 4.941406 -0.00390625 4.453125 0.109375 3.890625 0.109375 C 3.242188 0.109375 2.65625 -0.0546875 2.125 -0.390625 C 1.59375 -0.734375 1.171875 -1.210938 0.859375 -1.828125 C 0.554688 -2.453125 0.40625 -3.175781 0.40625 -4 Z M 6.359375 -3.984375 C 6.359375 -4.585938 6.1875 -5.066406 5.84375 -5.421875 C 5.507812 -5.773438 5.101562 -5.953125 4.625 -5.953125 C 4.132812 -5.953125 3.71875 -5.773438 3.375 -5.421875 C 3.039062 -5.078125 2.875 -4.601562 2.875 -4 C 2.875 -3.382812 3.039062 -2.898438 3.375 -2.546875 C 3.71875 -2.191406 4.132812 -2.015625 4.625 -2.015625 C 5.101562 -2.015625 5.507812 -2.1875 5.84375 -2.53125 C 6.1875 -2.882812 6.359375 -3.367188 6.359375 -3.984375 Z M 6.359375 -3.984375 "/></g></g></g><g fill="#ffce6d" fill-opacity="1"><g transform="translate(260.004115, 182.249988)"><g><path d="M 4.125 0.109375 C 3.425781 0.109375 2.804688 -0.00390625 2.265625 -0.234375 C 1.722656 -0.472656 1.296875 -0.800781 0.984375 -1.21875 C 0.671875 -1.632812 0.492188 -2.097656 0.453125 -2.609375 L 2.875 -2.609375 C 2.894531 -2.335938 3.019531 -2.113281 3.25 -1.9375 C 3.476562 -1.769531 3.757812 -1.6875 4.09375 -1.6875 C 4.394531 -1.6875 4.628906 -1.742188 4.796875 -1.859375 C 4.960938 -1.984375 5.046875 -2.140625 5.046875 -2.328125 C 5.046875 -2.554688 4.925781 -2.722656 4.6875 -2.828125 C 4.457031 -2.941406 4.070312 -3.066406 3.53125 -3.203125 C 2.96875 -3.328125 2.492188 -3.460938 2.109375 -3.609375 C 1.734375 -3.765625 1.40625 -4 1.125 -4.3125 C 0.851562 -4.632812 0.71875 -5.066406 0.71875 -5.609375 C 0.71875 -6.066406 0.84375 -6.484375 1.09375 -6.859375 C 1.34375 -7.234375 1.710938 -7.53125 2.203125 -7.75 C 2.691406 -7.96875 3.273438 -8.078125 3.953125 -8.078125 C 4.953125 -8.078125 5.738281 -7.828125 6.3125 -7.328125 C 6.882812 -6.835938 7.210938 -6.179688 7.296875 -5.359375 L 5.046875 -5.359375 C 5.015625 -5.640625 4.894531 -5.859375 4.6875 -6.015625 C 4.476562 -6.179688 4.207031 -6.265625 3.875 -6.265625 C 3.59375 -6.265625 3.375 -6.207031 3.21875 -6.09375 C 3.070312 -5.988281 3 -5.84375 3 -5.65625 C 3 -5.425781 3.117188 -5.253906 3.359375 -5.140625 C 3.597656 -5.023438 3.976562 -4.910156 4.5 -4.796875 C 5.082031 -4.640625 5.554688 -4.488281 5.921875 -4.34375 C 6.296875 -4.195312 6.625 -3.957031 6.90625 -3.625 C 7.1875 -3.300781 7.332031 -2.863281 7.34375 -2.3125 C 7.34375 -1.84375 7.210938 -1.425781 6.953125 -1.0625 C 6.691406 -0.695312 6.316406 -0.410156 5.828125 -0.203125 C 5.335938 0.00390625 4.769531 0.109375 4.125 0.109375 Z M 4.125 0.109375 "/></g></g></g><g fill="#ffce6d" fill-opacity="1"><g transform="translate(271.385825, 182.249988)"><g/></g></g><g fill="#ffce6d" fill-opacity="1"><g transform="translate(277.833002, 182.249988)"><g><path d="M 5.328125 -2.0625 L 5.328125 0 L 4.078125 0 C 3.191406 0 2.5 -0.210938 2 -0.640625 C 1.507812 -1.078125 1.265625 -1.785156 1.265625 -2.765625 L 1.265625 -5.9375 L 0.296875 -5.9375 L 0.296875 -7.953125 L 1.265625 -7.953125 L 1.265625 -9.90625 L 3.703125 -9.90625 L 3.703125 -7.953125 L 5.3125 -7.953125 L 5.3125 -5.9375 L 3.703125 -5.9375 L 3.703125 -2.734375 C 3.703125 -2.492188 3.757812 -2.320312 3.875 -2.21875 C 3.988281 -2.113281 4.179688 -2.0625 4.453125 -2.0625 Z M 5.328125 -2.0625 "/></g></g></g><g fill="#ffce6d" fill-opacity="1"><g transform="translate(287.046937, 182.249988)"><g><path d="M 4.515625 0.109375 C 3.734375 0.109375 3.03125 -0.0546875 2.40625 -0.390625 C 1.78125 -0.722656 1.289062 -1.195312 0.9375 -1.8125 C 0.582031 -2.425781 0.40625 -3.148438 0.40625 -3.984375 C 0.40625 -4.796875 0.582031 -5.515625 0.9375 -6.140625 C 1.300781 -6.765625 1.796875 -7.242188 2.421875 -7.578125 C 3.046875 -7.910156 3.75 -8.078125 4.53125 -8.078125 C 5.3125 -8.078125 6.015625 -7.910156 6.640625 -7.578125 C 7.273438 -7.242188 7.769531 -6.765625 8.125 -6.140625 C 8.488281 -5.515625 8.671875 -4.796875 8.671875 -3.984375 C 8.671875 -3.160156 8.488281 -2.4375 8.125 -1.8125 C 7.757812 -1.195312 7.257812 -0.722656 6.625 -0.390625 C 5.988281 -0.0546875 5.285156 0.109375 4.515625 0.109375 Z M 4.515625 -2 C 4.972656 -2 5.363281 -2.171875 5.6875 -2.515625 C 6.019531 -2.859375 6.1875 -3.347656 6.1875 -3.984375 C 6.1875 -4.617188 6.023438 -5.109375 5.703125 -5.453125 C 5.390625 -5.796875 5 -5.96875 4.53125 -5.96875 C 4.0625 -5.96875 3.664062 -5.796875 3.34375 -5.453125 C 3.03125 -5.117188 2.875 -4.628906 2.875 -3.984375 C 2.875 -3.347656 3.03125 -2.859375 3.34375 -2.515625 C 3.65625 -2.171875 4.046875 -2 4.515625 -2 Z M 4.515625 -2 "/></g></g></g><g fill="#ffce6d" fill-opacity="1"><g transform="translate(299.555317, 182.249988)"><g/></g></g><g fill="#ffce6d" fill-opacity="1"><g transform="translate(306.002495, 182.249988)"><g><path d="M 0.46875 -5.015625 C 0.46875 -6.003906 0.679688 -6.882812 1.109375 -7.65625 C 1.535156 -8.4375 2.128906 -9.039062 2.890625 -9.46875 C 3.660156 -9.90625 4.53125 -10.125 5.5 -10.125 C 6.695312 -10.125 7.71875 -9.8125 8.5625 -9.1875 C 9.40625 -8.5625 9.96875 -7.707031 10.25 -6.625 L 7.578125 -6.625 C 7.378906 -7.039062 7.09375 -7.359375 6.71875 -7.578125 C 6.351562 -7.796875 5.941406 -7.90625 5.484375 -7.90625 C 4.722656 -7.90625 4.109375 -7.640625 3.640625 -7.109375 C 3.179688 -6.585938 2.953125 -5.890625 2.953125 -5.015625 C 2.953125 -4.140625 3.179688 -3.441406 3.640625 -2.921875 C 4.109375 -2.398438 4.722656 -2.140625 5.484375 -2.140625 C 5.941406 -2.140625 6.351562 -2.25 6.71875 -2.46875 C 7.09375 -2.6875 7.378906 -3.003906 7.578125 -3.421875 L 10.25 -3.421875 C 9.96875 -2.335938 9.40625 -1.484375 8.5625 -0.859375 C 7.71875 -0.234375 6.695312 0.078125 5.5 0.078125 C 4.53125 0.078125 3.660156 -0.140625 2.890625 -0.578125 C 2.128906 -1.015625 1.535156 -1.613281 1.109375 -2.375 C 0.679688 -3.144531 0.46875 -4.023438 0.46875 -5.015625 Z M 0.46875 -5.015625 "/></g></g></g><g fill="#ffce6d" fill-opacity="1"><g transform="translate(320.29359, 182.249988)"><g><path d="M 4.515625 0.109375 C 3.734375 0.109375 3.03125 -0.0546875 2.40625 -0.390625 C 1.78125 -0.722656 1.289062 -1.195312 0.9375 -1.8125 C 0.582031 -2.425781 0.40625 -3.148438 0.40625 -3.984375 C 0.40625 -4.796875 0.582031 -5.515625 0.9375 -6.140625 C 1.300781 -6.765625 1.796875 -7.242188 2.421875 -7.578125 C 3.046875 -7.910156 3.75 -8.078125 4.53125 -8.078125 C 5.3125 -8.078125 6.015625 -7.910156 6.640625 -7.578125 C 7.273438 -7.242188 7.769531 -6.765625 8.125 -6.140625 C 8.488281 -5.515625 8.671875 -4.796875 8.671875 -3.984375 C 8.671875 -3.160156 8.488281 -2.4375 8.125 -1.8125 C 7.757812 -1.195312 7.257812 -0.722656 6.625 -0.390625 C 5.988281 -0.0546875 5.285156 0.109375 4.515625 0.109375 Z M 4.515625 -2 C 4.972656 -2 5.363281 -2.171875 5.6875 -2.515625 C 6.019531 -2.859375 6.1875 -3.347656 6.1875 -3.984375 C 6.1875 -4.617188 6.023438 -5.109375 5.703125 -5.453125 C 5.390625 -5.796875 5 -5.96875 4.53125 -5.96875 C 4.0625 -5.96875 3.664062 -5.796875 3.34375 -5.453125 C 3.03125 -5.117188 2.875 -4.628906 2.875 -3.984375 C 2.875 -3.347656 3.03125 -2.859375 3.34375 -2.515625 C 3.65625 -2.171875 4.046875 -2 4.515625 -2 Z M 4.515625 -2 "/></g></g></g><g fill="#ffce6d" fill-opacity="1"><g transform="translate(332.80197, 182.249988)"><g><path d="M 0.40625 -4 C 0.40625 -4.8125 0.554688 -5.523438 0.859375 -6.140625 C 1.171875 -6.765625 1.59375 -7.242188 2.125 -7.578125 C 2.65625 -7.910156 3.25 -8.078125 3.90625 -8.078125 C 4.425781 -8.078125 4.898438 -7.96875 5.328125 -7.75 C 5.765625 -7.53125 6.109375 -7.234375 6.359375 -6.859375 L 6.359375 -10.5625 L 8.796875 -10.5625 L 8.796875 0 L 6.359375 0 L 6.359375 -1.140625 C 6.128906 -0.765625 5.800781 -0.460938 5.375 -0.234375 C 4.957031 -0.00390625 4.46875 0.109375 3.90625 0.109375 C 3.25 0.109375 2.65625 -0.0546875 2.125 -0.390625 C 1.59375 -0.734375 1.171875 -1.210938 0.859375 -1.828125 C 0.554688 -2.453125 0.40625 -3.175781 0.40625 -4 Z M 6.359375 -3.984375 C 6.359375 -4.585938 6.1875 -5.066406 5.84375 -5.421875 C 5.507812 -5.773438 5.101562 -5.953125 4.625 -5.953125 C 4.132812 -5.953125 3.71875 -5.773438 3.375 -5.421875 C 3.039062 -5.078125 2.875 -4.601562 2.875 -4 C 2.875 -3.382812 3.039062 -2.898438 3.375 -2.546875 C 3.71875 -2.191406 4.132812 -2.015625 4.625 -2.015625 C 5.101562 -2.015625 5.507812 -2.1875 5.84375 -2.53125 C 6.1875 -2.882812 6.359375 -3.367188 6.359375 -3.984375 Z M 6.359375 -3.984375 "/></g></g></g><g fill="#ffce6d" fill-opacity="1"><g transform="translate(345.909344, 182.249988)"><g><path d="M 8.390625 -4.109375 C 8.390625 -3.878906 8.375 -3.640625 8.34375 -3.390625 L 2.828125 -3.390625 C 2.859375 -2.898438 3.015625 -2.523438 3.296875 -2.265625 C 3.578125 -2.003906 3.925781 -1.875 4.34375 -1.875 C 4.945312 -1.875 5.367188 -2.128906 5.609375 -2.640625 L 8.203125 -2.640625 C 8.066406 -2.117188 7.828125 -1.644531 7.484375 -1.21875 C 7.140625 -0.800781 6.703125 -0.472656 6.171875 -0.234375 C 5.648438 -0.00390625 5.066406 0.109375 4.421875 0.109375 C 3.640625 0.109375 2.941406 -0.0546875 2.328125 -0.390625 C 1.722656 -0.722656 1.25 -1.195312 0.90625 -1.8125 C 0.570312 -2.425781 0.40625 -3.148438 0.40625 -3.984375 C 0.40625 -4.804688 0.570312 -5.523438 0.90625 -6.140625 C 1.238281 -6.765625 1.707031 -7.242188 2.3125 -7.578125 C 2.925781 -7.910156 3.628906 -8.078125 4.421875 -8.078125 C 5.191406 -8.078125 5.875 -7.914062 6.46875 -7.59375 C 7.070312 -7.269531 7.539062 -6.804688 7.875 -6.203125 C 8.21875 -5.609375 8.390625 -4.910156 8.390625 -4.109375 Z M 5.890625 -4.75 C 5.890625 -5.164062 5.742188 -5.5 5.453125 -5.75 C 5.171875 -6 4.816406 -6.125 4.390625 -6.125 C 3.984375 -6.125 3.640625 -6.003906 3.359375 -5.765625 C 3.078125 -5.523438 2.90625 -5.1875 2.84375 -4.75 Z M 5.890625 -4.75 "/></g></g></g><g fill="#ffce6d" fill-opacity="1"><g transform="translate(198.523277, 201.749987)"><g><path d="M 12.265625 -6.015625 L 12.265625 -4 L 1 -4 L 1 -6.015625 Z M 12.265625 -6.015625 "/></g></g></g><g fill="#ffce6d" fill-opacity="1"><g transform="translate(215.21033, 201.749987)"><g/></g></g><g fill="#ffce6d" fill-opacity="1"><g transform="translate(221.657508, 201.749987)"><g><path d="M 8.09375 -10.015625 L 8.09375 -8.0625 L 5.4375 -8.0625 L 5.4375 0 L 3 0 L 3 -8.0625 L 0.34375 -8.0625 L 0.34375 -10.015625 Z M 8.09375 -10.015625 "/></g></g></g><g fill="#ffce6d" fill-opacity="1"><g transform="translate(233.509855, 201.749987)"><g><path d="M 4.515625 0.109375 C 3.734375 0.109375 3.03125 -0.0546875 2.40625 -0.390625 C 1.78125 -0.722656 1.289062 -1.195312 0.9375 -1.8125 C 0.582031 -2.425781 0.40625 -3.148438 0.40625 -3.984375 C 0.40625 -4.796875 0.582031 -5.515625 0.9375 -6.140625 C 1.300781 -6.765625 1.796875 -7.242188 2.421875 -7.578125 C 3.046875 -7.910156 3.75 -8.078125 4.53125 -8.078125 C 5.3125 -8.078125 6.015625 -7.910156 6.640625 -7.578125 C 7.273438 -7.242188 7.769531 -6.765625 8.125 -6.140625 C 8.488281 -5.515625 8.671875 -4.796875 8.671875 -3.984375 C 8.671875 -3.160156 8.488281 -2.4375 8.125 -1.8125 C 7.757812 -1.195312 7.257812 -0.722656 6.625 -0.390625 C 5.988281 -0.0546875 5.285156 0.109375 4.515625 0.109375 Z M 4.515625 -2 C 4.972656 -2 5.363281 -2.171875 5.6875 -2.515625 C 6.019531 -2.859375 6.1875 -3.347656 6.1875 -3.984375 C 6.1875 -4.617188 6.023438 -5.109375 5.703125 -5.453125 C 5.390625 -5.796875 5 -5.96875 4.53125 -5.96875 C 4.0625 -5.96875 3.664062 -5.796875 3.34375 -5.453125 C 3.03125 -5.117188 2.875 -4.628906 2.875 -3.984375 C 2.875 -3.347656 3.03125 -2.859375 3.34375 -2.515625 C 3.65625 -2.171875 4.046875 -2 4.515625 -2 Z M 4.515625 -2 "/></g></g></g><g fill="#ffce6d" fill-opacity="1"><g transform="translate(246.018235, 201.749987)"><g><path d="M 3.90625 -8.078125 C 4.46875 -8.078125 4.957031 -7.960938 5.375 -7.734375 C 5.800781 -7.503906 6.128906 -7.203125 6.359375 -6.828125 L 6.359375 -7.953125 L 8.796875 -7.953125 L 8.796875 -0.015625 C 8.796875 0.710938 8.648438 1.375 8.359375 1.96875 C 8.078125 2.570312 7.640625 3.046875 7.046875 3.390625 C 6.453125 3.742188 5.710938 3.921875 4.828125 3.921875 C 3.640625 3.921875 2.679688 3.640625 1.953125 3.078125 C 1.222656 2.523438 0.804688 1.773438 0.703125 0.828125 L 3.109375 0.828125 C 3.179688 1.128906 3.359375 1.367188 3.640625 1.546875 C 3.929688 1.722656 4.285156 1.8125 4.703125 1.8125 C 5.210938 1.8125 5.613281 1.664062 5.90625 1.375 C 6.207031 1.082031 6.359375 0.617188 6.359375 -0.015625 L 6.359375 -1.140625 C 6.117188 -0.765625 5.789062 -0.460938 5.375 -0.234375 C 4.957031 -0.00390625 4.46875 0.109375 3.90625 0.109375 C 3.25 0.109375 2.65625 -0.0546875 2.125 -0.390625 C 1.59375 -0.734375 1.171875 -1.210938 0.859375 -1.828125 C 0.554688 -2.453125 0.40625 -3.175781 0.40625 -4 C 0.40625 -4.8125 0.554688 -5.523438 0.859375 -6.140625 C 1.171875 -6.765625 1.59375 -7.242188 2.125 -7.578125 C 2.65625 -7.910156 3.25 -8.078125 3.90625 -8.078125 Z M 6.359375 -3.984375 C 6.359375 -4.585938 6.1875 -5.066406 5.84375 -5.421875 C 5.507812 -5.773438 5.101562 -5.953125 4.625 -5.953125 C 4.132812 -5.953125 3.71875 -5.773438 3.375 -5.421875 C 3.039062 -5.078125 2.875 -4.601562 2.875 -4 C 2.875 -3.382812 3.039062 -2.898438 3.375 -2.546875 C 3.71875 -2.191406 4.132812 -2.015625 4.625 -2.015625 C 5.101562 -2.015625 5.507812 -2.1875 5.84375 -2.53125 C 6.1875 -2.882812 6.359375 -3.367188 6.359375 -3.984375 Z M 6.359375 -3.984375 "/></g></g></g><g fill="#ffce6d" fill-opacity="1"><g transform="translate(259.12561, 201.749987)"><g><path d="M 8.390625 -4.109375 C 8.390625 -3.878906 8.375 -3.640625 8.34375 -3.390625 L 2.828125 -3.390625 C 2.859375 -2.898438 3.015625 -2.523438 3.296875 -2.265625 C 3.578125 -2.003906 3.925781 -1.875 4.34375 -1.875 C 4.945312 -1.875 5.367188 -2.128906 5.609375 -2.640625 L 8.203125 -2.640625 C 8.066406 -2.117188 7.828125 -1.644531 7.484375 -1.21875 C 7.140625 -0.800781 6.703125 -0.472656 6.171875 -0.234375 C 5.648438 -0.00390625 5.066406 0.109375 4.421875 0.109375 C 3.640625 0.109375 2.941406 -0.0546875 2.328125 -0.390625 C 1.722656 -0.722656 1.25 -1.195312 0.90625 -1.8125 C 0.570312 -2.425781 0.40625 -3.148438 0.40625 -3.984375 C 0.40625 -4.804688 0.570312 -5.523438 0.90625 -6.140625 C 1.238281 -6.765625 1.707031 -7.242188 2.3125 -7.578125 C 2.925781 -7.910156 3.628906 -8.078125 4.421875 -8.078125 C 5.191406 -8.078125 5.875 -7.914062 6.46875 -7.59375 C 7.070312 -7.269531 7.539062 -6.804688 7.875 -6.203125 C 8.21875 -5.609375 8.390625 -4.910156 8.390625 -4.109375 Z M 5.890625 -4.75 C 5.890625 -5.164062 5.742188 -5.5 5.453125 -5.75 C 5.171875 -6 4.816406 -6.125 4.390625 -6.125 C 3.984375 -6.125 3.640625 -6.003906 3.359375 -5.765625 C 3.078125 -5.523438 2.90625 -5.1875 2.84375 -4.75 Z M 5.890625 -4.75 "/></g></g></g><g fill="#ffce6d" fill-opacity="1"><g transform="translate(271.334498, 201.749987)"><g><path d="M 5.328125 -2.0625 L 5.328125 0 L 4.078125 0 C 3.191406 0 2.5 -0.210938 2 -0.640625 C 1.507812 -1.078125 1.265625 -1.785156 1.265625 -2.765625 L 1.265625 -5.9375 L 0.296875 -5.9375 L 0.296875 -7.953125 L 1.265625 -7.953125 L 1.265625 -9.90625 L 3.703125 -9.90625 L 3.703125 -7.953125 L 5.3125 -7.953125 L 5.3125 -5.9375 L 3.703125 -5.9375 L 3.703125 -2.734375 C 3.703125 -2.492188 3.757812 -2.320312 3.875 -2.21875 C 3.988281 -2.113281 4.179688 -2.0625 4.453125 -2.0625 Z M 5.328125 -2.0625 "/></g></g></g><g fill="#ffce6d" fill-opacity="1"><g transform="translate(280.548434, 201.749987)"><g><path d="M 5.78125 -8.046875 C 6.6875 -8.046875 7.414062 -7.742188 7.96875 -7.140625 C 8.519531 -6.535156 8.796875 -5.707031 8.796875 -4.65625 L 8.796875 0 L 6.375 0 L 6.375 -4.328125 C 6.375 -4.859375 6.234375 -5.269531 5.953125 -5.5625 C 5.679688 -5.851562 5.3125 -6 4.84375 -6 C 4.382812 -6 4.015625 -5.851562 3.734375 -5.5625 C 3.460938 -5.269531 3.328125 -4.859375 3.328125 -4.328125 L 3.328125 0 L 0.890625 0 L 0.890625 -10.5625 L 3.328125 -10.5625 L 3.328125 -6.890625 C 3.566406 -7.242188 3.898438 -7.523438 4.328125 -7.734375 C 4.765625 -7.941406 5.25 -8.046875 5.78125 -8.046875 Z M 5.78125 -8.046875 "/></g></g></g><g fill="#ffce6d" fill-opacity="1"><g transform="translate(293.584501, 201.749987)"><g><path d="M 8.390625 -4.109375 C 8.390625 -3.878906 8.375 -3.640625 8.34375 -3.390625 L 2.828125 -3.390625 C 2.859375 -2.898438 3.015625 -2.523438 3.296875 -2.265625 C 3.578125 -2.003906 3.925781 -1.875 4.34375 -1.875 C 4.945312 -1.875 5.367188 -2.128906 5.609375 -2.640625 L 8.203125 -2.640625 C 8.066406 -2.117188 7.828125 -1.644531 7.484375 -1.21875 C 7.140625 -0.800781 6.703125 -0.472656 6.171875 -0.234375 C 5.648438 -0.00390625 5.066406 0.109375 4.421875 0.109375 C 3.640625 0.109375 2.941406 -0.0546875 2.328125 -0.390625 C 1.722656 -0.722656 1.25 -1.195312 0.90625 -1.8125 C 0.570312 -2.425781 0.40625 -3.148438 0.40625 -3.984375 C 0.40625 -4.804688 0.570312 -5.523438 0.90625 -6.140625 C 1.238281 -6.765625 1.707031 -7.242188 2.3125 -7.578125 C 2.925781 -7.910156 3.628906 -8.078125 4.421875 -8.078125 C 5.191406 -8.078125 5.875 -7.914062 6.46875 -7.59375 C 7.070312 -7.269531 7.539062 -6.804688 7.875 -6.203125 C 8.21875 -5.609375 8.390625 -4.910156 8.390625 -4.109375 Z M 5.890625 -4.75 C 5.890625 -5.164062 5.742188 -5.5 5.453125 -5.75 C 5.171875 -6 4.816406 -6.125 4.390625 -6.125 C 3.984375 -6.125 3.640625 -6.003906 3.359375 -5.765625 C 3.078125 -5.523438 2.90625 -5.1875 2.84375 -4.75 Z M 5.890625 -4.75 "/></g></g></g><g fill="#ffce6d" fill-opacity="1"><g transform="translate(305.793389, 201.749987)"><g><path d="M 3.328125 -6.640625 C 3.609375 -7.078125 3.960938 -7.421875 4.390625 -7.671875 C 4.816406 -7.921875 5.296875 -8.046875 5.828125 -8.046875 L 5.828125 -5.46875 L 5.15625 -5.46875 C 4.539062 -5.46875 4.082031 -5.332031 3.78125 -5.0625 C 3.476562 -4.800781 3.328125 -4.34375 3.328125 -3.6875 L 3.328125 0 L 0.890625 0 L 0.890625 -7.953125 L 3.328125 -7.953125 Z M 3.328125 -6.640625 "/></g></g></g></svg>